{
  "asset": {
    "generator": "Khronos glTF Blender I/O v3.6.27",
    "version": "2.0"
  },
  "scene": 0,
  "scenes": [
    {
      "name": "Scene",
      "nodes": [
        0
      ]
    }
  ],
  "nodes": [
    {
      "mesh": 0,
      "name": "hatchet"
    }
  ],
  "materials": [
    {
      "doubleSided": true,
      "name": "hatchet",
      "normalTexture": {
        "index": 0
      },
      "pbrMetallicRoughness": {
        "baseColorTexture": {
          "index": 1
        },
        "metallicRoughnessTexture": {
          "index": 2
        }
      }
    }
  ],
  "meshes": [
    {
      "name": "Plane.002",
      "primitives": [
        {
          "attributes": {
            "POSITION": 0,
            "NORMAL": 1,
            "TEXCOORD_0": 2
          },
          "indices": 3,
          "material": 0
        }
      ]
    }
  ],
  "textures": [
    {
      "sampler": 0,
      "source": 0
    },
    {
      "sampler": 0,
      "source": 1
    },
    {
      "sampler": 0,
      "source": 2
    }
  ],
  "images": [
    {
      "mimeType": "image/jpeg",
      "name": "hatchet_nor_gl",
      "uri": "textures/hatchet_nor_gl_4k.jpg"
    },
    {
      "mimeType": "image/jpeg",
      "name": "hatchet_diff",
      "uri": "textures/hatchet_diff_4k.jpg"
    },
    {
      "mimeType": "image/jpeg",
      "name": "hatchet_metal-hatchet_rough",
      "uri": "textures/hatchet_arm_4k.jpg"
    }
  ],
  "accessors": [
    {
      "bufferView": 0,
      "componentType": 5126,
      "count": 4157,
      "max": [
        0.012804529629647732,
        0.22689877450466156,
        0.07712532579898834
      ],
      "min": [
        -0.013217705301940441,
        -0.06183049827814102,
        -0.027144843712449074
      ],
      "type": "VEC3"
    },
    {
      "bufferView": 1,
      "componentType": 5126,
      "count": 4157,
      "type": "VEC3"
    },
    {
      "bufferView": 2,
      "componentType": 5126,
      "count": 4157,
      "type": "VEC2"
    },
    {
      "bufferView": 3,
      "componentType": 5123,
      "count": 15750,
      "type": "SCALAR"
    }
  ],
  "bufferViews": [
    {
      "buffer": 0,
      "byteLength": 49884,
      "byteOffset": 0,
      "target": 34962
    },
    {
      "buffer": 0,
      "byteLength": 49884,
      "byteOffset": 49884,
      "target": 34962
    },
    {
      "buffer": 0,
      "byteLength": 33256,
      "byteOffset": 99768,
      "target": 34962
    },
    {
      "buffer": 0,
      "byteLength": 31500,
      "byteOffset": 133024,
      "target": 34963
    }
  ],
  "samplers": [
    {
      "magFilter": 9729,
      "minFilter": 9987
    }
  ],
  "buffers": [
    {
      "byteLength": 164524,
      "uri": "hatchet.bin"
    }
  ]
}